<svg width="30" height="30" viewBox="0 0 30 30" fill="none" xmlns="http://www.w3.org/2000/svg">
<path d="M14.9977 0.600098C7.04466 0.600098 0.597656 7.0471 0.597656 15.0001C0.597656 22.9531 7.04466 29.4001 14.9977 29.4001C22.9507 29.4001 29.3977 22.9531 29.3977 15.0001C29.3977 7.0471 22.9507 0.600098 14.9977 0.600098ZM11.4727 20.9686H8.55666V11.5846H11.4727V20.9686ZM9.99666 10.4326C9.07566 10.4326 8.48016 9.7801 8.48016 8.9731C8.48016 8.1496 9.09366 7.5166 10.0342 7.5166C10.9747 7.5166 11.5507 8.1496 11.5687 8.9731C11.5687 9.7801 10.9747 10.4326 9.99666 10.4326ZM22.1227 20.9686H19.2067V15.7681C19.2067 14.5576 18.7837 13.7356 17.7292 13.7356C16.9237 13.7356 16.4452 14.2921 16.2337 14.8276C16.1557 15.0181 16.1362 15.2881 16.1362 15.5566V20.9671H13.2187V14.5771C13.2187 13.4056 13.1812 12.4261 13.1422 11.5831H15.6757L15.8092 12.8866H15.8677C16.2517 12.2746 17.1922 11.3716 18.7657 11.3716C20.6842 11.3716 22.1227 12.6571 22.1227 15.4201V20.9686Z" fill="#C2B97F"/>
</svg>
