<svg width="198" height="60" viewBox="0 0 198 60" fill="none" xmlns="http://www.w3.org/2000/svg">
<circle cx="30" cy="30" r="30" fill="#72195A"/>
<path d="M21.9846 15.7282C22.3477 15.6428 22.636 15.6 22.8496 15.6C23.0632 15.6 23.469 15.6962 24.0671 15.8884C24.6865 16.0593 24.9962 16.2515 24.9962 16.4651C24.9962 16.4865 24.9535 16.5826 24.8681 16.7534C24.7399 16.8816 24.6652 17.17 24.6438 17.6185C24.6225 18.0671 24.5904 18.3447 24.5477 18.4515C24.5263 18.537 24.4836 18.7078 24.4195 18.9642C24.3768 19.2205 24.3127 19.4661 24.2273 19.7011C24.1846 20.0855 23.8428 20.5341 23.202 21.0467C22.9244 21.2817 22.7428 21.3991 22.6574 21.3991C22.4651 21.3991 22.369 21.3244 22.369 21.1749C22.0914 21.0894 21.8991 20.9186 21.7923 20.6622C21.6428 20.4486 21.5467 20.3312 21.504 20.3098L20.703 20.1496C20.5535 20.0001 20.3933 19.6477 20.2224 19.0923C20.2224 18.7292 20.3185 18.2593 20.5108 17.6826C20.703 17.1059 20.9913 16.5933 21.3758 16.1447C21.4399 15.9525 21.6428 15.8136 21.9846 15.7282ZM20.0302 28.3837C19.9874 28.341 19.9447 28.1808 19.902 27.9031C19.8806 27.6041 19.8593 27.3798 19.8379 27.2303C19.8166 27.0594 19.7952 26.8565 19.7738 26.6215V25.5642C19.7738 25.2225 19.9554 24.8807 20.3185 24.539C20.9166 24.24 21.3651 24.0904 21.6642 24.0904C21.9846 24.0904 22.3797 24.2186 22.8496 24.4749L23.3943 24.7312C23.5011 25.0089 23.5972 25.874 23.6826 27.3264V28.2876C23.6826 33.6275 23.2768 37.5469 22.4651 40.046L22.4011 40.5266C22.2302 41.0606 21.9205 41.7013 21.4719 42.4489L21.3438 42.7052C21.237 42.9402 20.8418 43.3033 20.1583 43.7946C19.8379 44.0936 19.4001 44.2218 18.8447 44.179C17.7981 44.179 17.0932 44.0402 16.7301 43.7625C16.6447 43.6985 16.5486 43.6237 16.4418 43.5383C16.2922 43.3887 16.0253 43.2392 15.6408 43.0897C15.5553 43.0043 15.4699 42.8441 15.3845 42.6091C15.299 42.3742 15.235 42.214 15.1922 42.1285C15.1495 42.0431 15.0854 41.8295 15 41.4878L15.1922 40.6547C15.3845 40.1635 15.6515 39.9178 15.9932 39.9178C16.3136 39.9178 16.5058 40.078 16.5699 40.3984C16.5699 40.5907 16.6126 40.7722 16.6981 40.9431C17.0185 41.3489 17.3495 41.5732 17.6913 41.6159C18.0971 41.5732 18.4709 41.2101 18.8127 40.5266C18.9622 40.3771 19.0369 40.2489 19.0369 40.1421C19.0369 40.0567 19.1117 39.8858 19.2612 39.6295C19.4962 39.3945 19.6564 38.9353 19.7418 38.2518C19.7418 38.2304 19.7311 38.1984 19.7098 38.1557C19.7098 38.0916 19.7845 37.878 19.934 37.5149C20.0836 37.3654 20.1583 37.1197 20.1583 36.778L20.4467 34.6634L20.4787 33.6702L20.1263 29.6332C20.1263 29.3983 20.0942 29.1206 20.0302 28.8002V28.3837Z" fill="white"/>
<path d="M40.9951 34.4071C40.9951 34.2362 40.9097 34.076 40.7388 33.9265C40.5679 33.7556 40.4825 33.5741 40.4825 33.3818C40.4825 33.1682 40.4397 32.8265 40.3543 32.3566C40.397 32.2711 40.3864 31.9614 40.3223 31.4274C40.3436 31.3847 40.333 31.075 40.2902 30.4983C40.2689 29.9216 40.2582 29.409 40.2582 28.9604L39.9378 29.5371C39.2543 31.2032 38.9125 32.0789 38.9125 32.1643L38.1756 34.4071L37.9834 35.176C37.8125 35.7314 37.7805 36.2974 37.8873 36.8741C37.93 37.0663 37.7057 37.2692 37.2145 37.4828C37.0863 37.4828 36.7659 37.4188 36.2533 37.2906C36.0824 37.2906 35.9115 37.2906 35.7407 37.2906C35.5911 37.312 35.1533 37.2052 34.427 36.9702C34.427 36.8848 34.2562 36.7032 33.9144 36.4255L33.8183 34.2148C33.8183 33.7449 33.8824 33.0187 34.0105 32.0362V31.2352L34.1387 30.1779L34.2989 28.1915V27.5507C33.7222 29.1954 33.3377 30.2633 33.1455 30.7546C33.1455 31.0109 32.9105 31.876 32.4406 33.3498C31.9921 35.1867 31.8105 36.3721 31.8959 36.9061C31.8959 37.0343 31.8532 37.1304 31.7678 37.1945C31.7037 37.2799 31.5222 37.3974 31.2231 37.5469C30.7532 37.5469 30.0377 37.4508 29.0765 37.2586L28.4998 37.0023C28.3076 36.9382 28.1367 36.6819 27.9872 36.2333C27.8376 35.7848 27.7522 35.4003 27.7308 35.0799C27.6454 34.9731 27.6027 34.7275 27.6027 34.343L27.5706 33.9585C27.4211 31.6731 27.3464 30.1031 27.3464 29.2488C27.3891 29.1206 27.4105 28.907 27.4105 28.608V27.7109C27.4105 27.3264 27.4318 26.8245 27.4745 26.205C27.5386 25.5856 27.5706 25.1371 27.5706 24.8594L27.5386 23.8021C27.624 23.4603 28.0726 23.2467 28.8843 23.1613C29.2474 23.1613 29.5571 23.2254 29.8134 23.3535C30.2406 23.6312 30.5076 23.9623 30.6144 24.3468C30.7425 24.7312 30.8173 25.2225 30.8387 25.8206C30.86 26.4186 30.86 26.9206 30.8387 27.3264C30.8173 28.4798 30.8707 29.2915 30.9989 29.7614C31.127 29.5051 31.2979 29.0565 31.5115 28.4157C31.5542 28.373 31.7785 27.807 32.1843 26.7177L32.8571 24.6992C33.3484 24.037 33.6154 23.6953 33.6581 23.6739C33.7222 23.6312 33.8931 23.5992 34.1707 23.5778C34.4911 23.5565 34.8542 23.6419 35.2601 23.8341C35.6873 24.005 35.9115 24.1011 35.9329 24.1225C35.9756 24.1225 36.1678 24.2293 36.5096 24.4429C36.6591 24.571 36.798 24.8167 36.9261 25.1798C37.0543 25.5429 37.1183 25.8419 37.1183 26.0769C37.1611 26.9313 37.1824 27.3798 37.1824 27.4225V27.807C37.1397 29.0886 37.1717 29.7934 37.2785 29.9216C37.4281 29.3662 37.7164 28.6507 38.1436 27.775L38.464 26.9419L39.1048 25.6283C39.0834 25.5642 39.2009 25.2652 39.4572 24.7312L39.7776 23.738C39.9698 23.0759 40.5038 22.5526 41.3796 22.1681C41.5504 22.1681 41.9563 22.2856 42.5971 22.5205C43.0242 22.5205 43.4087 22.8089 43.7505 23.3856C43.9 23.6205 43.9747 23.9302 43.9747 24.3147C43.9747 24.4002 43.9427 24.9235 43.8786 25.8846V26.9099C43.8359 27.1662 43.8252 27.3905 43.8466 27.5827L43.8145 28.5759V30.4662C43.8145 30.7226 43.8039 30.8934 43.7825 30.9789L43.8786 32.7731C43.9641 32.9226 44.0068 33.1362 44.0068 33.4139C44.1349 34.4818 44.3913 35.2935 44.7757 35.8488L45 36.2654C44.5087 37.1197 43.7398 37.376 42.6932 37.0343C42.6077 36.8848 42.4903 36.7566 42.3407 36.6498C42.2126 36.543 42.031 36.3721 41.7961 36.1372C41.7961 36.1158 41.6466 35.8916 41.3475 35.4644C41.3475 35.2081 41.2301 34.8556 40.9951 34.4071Z" fill="white"/>
<path d="M95.112 27.192C94.36 27.192 93.664 26.968 93.024 26.52C92.384 26.072 91.864 25.488 91.464 24.768C91.08 24.032 90.888 23.248 90.888 22.416V20.208C90.888 19.344 91.08 18.552 91.464 17.832C91.848 17.112 92.36 16.544 93 16.128C93.656 15.696 94.376 15.48 95.16 15.48C95.928 15.48 96.576 15.664 97.104 16.032C97.632 16.4 98.024 16.824 98.28 17.304V9.672C98.28 9.432 98.408 9.24 98.664 9.096C98.92 8.936 99.224 8.856 99.576 8.856C99.928 8.856 100.216 8.936 100.44 9.096C100.68 9.24 100.8 9.432 100.8 9.672V26.136C100.8 26.36 100.68 26.56 100.44 26.736C100.216 26.912 99.928 27 99.576 27C99.256 27 98.984 26.912 98.76 26.736C98.536 26.56 98.424 26.36 98.424 26.136V25.32C98.184 25.816 97.76 26.256 97.152 26.64C96.544 27.008 95.864 27.192 95.112 27.192ZM95.832 24.96C96.296 24.96 96.712 24.832 97.08 24.576C97.448 24.32 97.736 24.04 97.944 23.736C98.168 23.416 98.28 23.16 98.28 22.968V20.208C98.28 19.68 98.16 19.232 97.92 18.864C97.68 18.496 97.376 18.216 97.008 18.024C96.64 17.816 96.256 17.712 95.856 17.712C95.408 17.712 95 17.832 94.632 18.072C94.264 18.312 93.968 18.624 93.744 19.008C93.52 19.392 93.408 19.792 93.408 20.208V22.416C93.408 22.848 93.52 23.256 93.744 23.64C93.968 24.024 94.256 24.344 94.608 24.6C94.976 24.84 95.384 24.96 95.832 24.96ZM108.309 27.192C107.397 27.192 106.565 26.976 105.813 26.544C105.061 26.096 104.461 25.512 104.013 24.792C103.565 24.072 103.341 23.296 103.341 22.464V16.464C103.341 16.256 103.461 16.064 103.701 15.888C103.957 15.712 104.261 15.624 104.613 15.624C104.949 15.624 105.237 15.712 105.477 15.888C105.733 16.064 105.861 16.256 105.861 16.464V22.464C105.861 22.88 105.965 23.28 106.173 23.664C106.397 24.048 106.693 24.36 107.061 24.6C107.445 24.84 107.861 24.96 108.309 24.96C108.757 24.96 109.165 24.84 109.533 24.6C109.901 24.36 110.189 24.056 110.397 23.688C110.621 23.304 110.733 22.896 110.733 22.464V16.44C110.733 16.216 110.861 16.024 111.117 15.864C111.373 15.704 111.669 15.624 112.005 15.624C112.373 15.624 112.669 15.704 112.893 15.864C113.133 16.024 113.253 16.216 113.253 16.44V22.464C113.253 23.296 113.029 24.072 112.581 24.792C112.133 25.512 111.533 26.096 110.781 26.544C110.029 26.976 109.205 27.192 108.309 27.192ZM117.013 27C116.661 27 116.365 26.912 116.125 26.736C115.901 26.56 115.789 26.36 115.789 26.136V9.672C115.789 9.432 115.901 9.24 116.125 9.096C116.365 8.936 116.661 8.856 117.013 8.856C117.365 8.856 117.669 8.936 117.925 9.096C118.181 9.24 118.309 9.432 118.309 9.672V20.352L123.325 15.744C123.469 15.6 123.645 15.528 123.853 15.528C124.125 15.528 124.397 15.656 124.669 15.912C124.941 16.168 125.077 16.44 125.077 16.728C125.077 16.936 125.005 17.112 124.861 17.256L121.765 20.016L125.533 25.44C125.629 25.6 125.677 25.744 125.677 25.872C125.677 26.176 125.517 26.464 125.197 26.736C124.877 27.008 124.565 27.144 124.261 27.144C123.989 27.144 123.765 27.024 123.589 26.784L120.061 21.576L118.309 23.16V26.136C118.309 26.36 118.181 26.56 117.925 26.736C117.669 26.912 117.365 27 117.013 27ZM129.722 27.192C128.842 27.192 128.09 26.936 127.466 26.424C126.842 25.912 126.53 25.112 126.53 24.024C126.53 23.112 126.762 22.408 127.226 21.912C127.706 21.416 128.362 21.072 129.194 20.88C130.042 20.688 131.026 20.592 132.146 20.592H133.202V20.16C133.202 19.76 133.122 19.36 132.962 18.96C132.818 18.56 132.57 18.232 132.218 17.976C131.882 17.704 131.418 17.568 130.826 17.568C130.234 17.568 129.77 17.632 129.434 17.76C129.114 17.872 128.858 17.992 128.666 18.12C128.49 18.232 128.322 18.288 128.162 18.288C127.858 18.288 127.626 18.152 127.466 17.88C127.322 17.592 127.25 17.304 127.25 17.016C127.25 16.728 127.434 16.472 127.802 16.248C128.186 16.008 128.658 15.824 129.218 15.696C129.778 15.552 130.33 15.48 130.874 15.48C132.058 15.48 133.002 15.704 133.706 16.152C134.41 16.584 134.922 17.16 135.242 17.88C135.562 18.584 135.722 19.336 135.722 20.136V26.136C135.722 26.376 135.602 26.584 135.362 26.76C135.138 26.92 134.85 27 134.498 27C134.162 27 133.882 26.92 133.658 26.76C133.45 26.584 133.346 26.376 133.346 26.136V25.32C132.914 25.816 132.402 26.256 131.81 26.64C131.234 27.008 130.538 27.192 129.722 27.192ZM130.634 25.272C131.034 25.272 131.426 25.152 131.81 24.912C132.21 24.672 132.538 24.368 132.794 24C133.066 23.632 133.202 23.256 133.202 22.872V21.984H132.602C131.994 21.984 131.418 22.024 130.874 22.104C130.33 22.168 129.89 22.328 129.554 22.584C129.234 22.824 129.074 23.2 129.074 23.712C129.074 24.256 129.218 24.656 129.506 24.912C129.81 25.152 130.186 25.272 130.634 25.272ZM139.513 27C139.145 27 138.841 26.912 138.601 26.736C138.377 26.56 138.265 26.36 138.265 26.136V16.44C138.265 16.2 138.377 16.008 138.601 15.864C138.841 15.704 139.145 15.624 139.513 15.624C139.817 15.624 140.081 15.704 140.305 15.864C140.529 16.008 140.641 16.2 140.641 16.44V17.304C140.881 16.824 141.273 16.4 141.817 16.032C142.377 15.664 143.057 15.48 143.857 15.48C144.609 15.48 145.297 15.696 145.921 16.128C146.561 16.544 147.073 17.112 147.457 17.832C147.841 18.552 148.033 19.344 148.033 20.208V26.136C148.033 26.424 147.897 26.64 147.625 26.784C147.369 26.928 147.081 27 146.761 27C146.473 27 146.193 26.928 145.921 26.784C145.649 26.64 145.513 26.424 145.513 26.136V20.208C145.513 19.792 145.401 19.392 145.177 19.008C144.969 18.624 144.681 18.312 144.313 18.072C143.945 17.832 143.537 17.712 143.089 17.712C142.513 17.712 141.985 17.936 141.505 18.384C141.025 18.816 140.785 19.424 140.785 20.208V26.136C140.785 26.36 140.657 26.56 140.401 26.736C140.145 26.912 139.849 27 139.513 27ZM154.843 32.4C153.899 32.4 153.035 32.264 152.251 31.992C151.483 31.736 150.867 31.36 150.403 30.864C149.939 30.384 149.707 29.792 149.707 29.088C149.707 28.448 149.891 27.92 150.259 27.504C150.627 27.088 151.059 26.76 151.555 26.52C151.219 26.376 150.947 26.184 150.739 25.944C150.547 25.704 150.451 25.368 150.451 24.936C150.451 24.504 150.563 24.152 150.787 23.88C151.011 23.592 151.299 23.336 151.651 23.112C151.203 22.76 150.851 22.328 150.595 21.816C150.355 21.288 150.235 20.712 150.235 20.088V19.416C150.235 18.264 150.643 17.32 151.459 16.584C152.275 15.848 153.355 15.48 154.699 15.48C155.243 15.48 155.747 15.552 156.211 15.696C156.691 15.84 157.115 16.04 157.483 16.296C157.739 15.72 157.995 15.312 158.251 15.072C158.523 14.816 158.779 14.688 159.019 14.688C159.355 14.688 159.611 14.792 159.787 15C159.963 15.192 160.051 15.376 160.051 15.552C160.051 15.808 159.923 16.008 159.667 16.152C159.491 16.232 159.291 16.344 159.067 16.488C158.843 16.616 158.635 16.824 158.443 17.112C158.971 17.736 159.235 18.504 159.235 19.416V20.088C159.235 20.856 159.043 21.544 158.659 22.152C158.275 22.744 157.739 23.216 157.051 23.568C156.363 23.904 155.579 24.072 154.699 24.072C154.075 24.072 153.523 23.976 153.043 23.784C152.915 23.864 152.803 23.96 152.707 24.072C152.627 24.168 152.587 24.296 152.587 24.456C152.587 24.744 152.763 24.952 153.115 25.08C153.467 25.208 153.915 25.304 154.459 25.368C155.019 25.432 155.611 25.512 156.235 25.608C156.859 25.704 157.443 25.856 157.987 26.064C158.547 26.272 159.003 26.592 159.355 27.024C159.707 27.456 159.883 28.04 159.883 28.776C159.883 29.608 159.651 30.288 159.187 30.816C158.723 31.36 158.107 31.76 157.339 32.016C156.587 32.272 155.755 32.4 154.843 32.4ZM154.795 30.72C155.579 30.72 156.211 30.552 156.691 30.216C157.187 29.88 157.435 29.424 157.435 28.848C157.435 28.448 157.315 28.136 157.075 27.912C156.835 27.688 156.523 27.52 156.139 27.408C155.755 27.296 155.347 27.216 154.915 27.168C154.499 27.12 154.099 27.072 153.715 27.024C153.267 27.184 152.883 27.408 152.563 27.696C152.259 28 152.107 28.376 152.107 28.824C152.107 29.416 152.355 29.88 152.851 30.216C153.363 30.552 154.011 30.72 154.795 30.72ZM154.747 22.464C155.371 22.464 155.867 22.24 156.235 21.792C156.603 21.344 156.787 20.776 156.787 20.088V19.416C156.787 18.776 156.603 18.232 156.235 17.784C155.883 17.32 155.379 17.088 154.723 17.088C154.067 17.088 153.563 17.32 153.211 17.784C152.859 18.232 152.683 18.776 152.683 19.416V20.064C152.683 20.736 152.859 21.304 153.211 21.768C153.579 22.232 154.091 22.464 154.747 22.464ZM166.551 27.192C165.639 27.192 164.807 26.976 164.055 26.544C163.303 26.096 162.703 25.512 162.255 24.792C161.807 24.072 161.583 23.296 161.583 22.464V16.464C161.583 16.256 161.703 16.064 161.943 15.888C162.199 15.712 162.503 15.624 162.855 15.624C163.191 15.624 163.479 15.712 163.719 15.888C163.975 16.064 164.103 16.256 164.103 16.464V22.464C164.103 22.88 164.207 23.28 164.415 23.664C164.639 24.048 164.935 24.36 165.303 24.6C165.687 24.84 166.103 24.96 166.551 24.96C166.999 24.96 167.407 24.84 167.775 24.6C168.143 24.36 168.431 24.056 168.639 23.688C168.863 23.304 168.975 22.896 168.975 22.464V16.44C168.975 16.216 169.103 16.024 169.359 15.864C169.615 15.704 169.911 15.624 170.247 15.624C170.615 15.624 170.911 15.704 171.135 15.864C171.375 16.024 171.495 16.216 171.495 16.44V22.464C171.495 23.296 171.271 24.072 170.823 24.792C170.375 25.512 169.775 26.096 169.023 26.544C168.271 26.976 167.447 27.192 166.551 27.192Z" fill="#72195A"/>
<path d="M91.692 52C91.524 52 91.386 51.952 91.278 51.856C91.17 51.76 91.116 51.658 91.116 51.55V43.918C91.116 43.798 91.17 43.696 91.278 43.612C91.386 43.528 91.524 43.486 91.692 43.486C91.848 43.486 91.98 43.528 92.088 43.612C92.196 43.696 92.25 43.798 92.25 43.918V44.746C92.442 44.398 92.736 44.086 93.132 43.81C93.54 43.522 94.044 43.378 94.644 43.378C95.232 43.378 95.748 43.546 96.192 43.882C96.648 44.218 96.984 44.65 97.2 45.178C97.524 44.566 97.926 44.116 98.406 43.828C98.898 43.528 99.408 43.378 99.936 43.378C100.452 43.378 100.938 43.51 101.394 43.774C101.862 44.038 102.24 44.422 102.528 44.926C102.816 45.43 102.96 46.036 102.96 46.744V51.55C102.96 51.658 102.9 51.76 102.78 51.856C102.672 51.952 102.534 52 102.366 52C102.222 52 102.09 51.952 101.97 51.856C101.85 51.76 101.79 51.658 101.79 51.55V46.744C101.79 46.24 101.688 45.82 101.484 45.484C101.28 45.136 101.022 44.878 100.71 44.71C100.398 44.542 100.074 44.458 99.738 44.458C99.39 44.458 99.054 44.548 98.73 44.728C98.406 44.908 98.142 45.166 97.938 45.502C97.734 45.826 97.632 46.216 97.632 46.672V51.568C97.632 51.712 97.566 51.82 97.434 51.892C97.314 51.964 97.182 52 97.038 52C96.906 52 96.774 51.964 96.642 51.892C96.522 51.82 96.462 51.712 96.462 51.568V46.69C96.462 46.042 96.258 45.508 95.85 45.088C95.442 44.668 94.962 44.458 94.41 44.458C94.062 44.458 93.726 44.548 93.402 44.728C93.078 44.908 92.808 45.172 92.592 45.52C92.388 45.856 92.286 46.264 92.286 46.744V51.55C92.286 51.658 92.226 51.76 92.106 51.856C91.998 51.952 91.86 52 91.692 52ZM108.707 52.126C107.951 52.126 107.279 51.988 106.691 51.712C106.115 51.424 105.659 51.022 105.323 50.506C104.999 49.99 104.837 49.39 104.837 48.706V46.69C104.837 46.09 104.993 45.544 105.305 45.052C105.617 44.548 106.031 44.146 106.547 43.846C107.075 43.534 107.651 43.378 108.275 43.378C108.875 43.378 109.427 43.522 109.931 43.81C110.447 44.086 110.861 44.47 111.173 44.962C111.485 45.454 111.641 46.018 111.641 46.654C111.641 47.122 111.563 47.458 111.407 47.662C111.251 47.854 111.053 47.974 110.813 48.022C110.585 48.07 110.339 48.094 110.075 48.094H106.007V48.76C106.007 49.48 106.265 50.056 106.781 50.488C107.297 50.908 107.951 51.118 108.743 51.118C109.223 51.118 109.589 51.058 109.841 50.938C110.105 50.818 110.315 50.698 110.471 50.578C110.627 50.458 110.771 50.398 110.903 50.398C111.047 50.398 111.167 50.464 111.263 50.596C111.359 50.716 111.407 50.83 111.407 50.938C111.407 51.082 111.293 51.25 111.065 51.442C110.849 51.622 110.537 51.784 110.129 51.928C109.733 52.06 109.259 52.126 108.707 52.126ZM106.007 47.23H109.607C109.967 47.23 110.207 47.194 110.327 47.122C110.447 47.038 110.507 46.87 110.507 46.618C110.507 46.234 110.411 45.874 110.219 45.538C110.027 45.19 109.763 44.908 109.427 44.692C109.091 44.464 108.701 44.35 108.257 44.35C107.837 44.35 107.459 44.452 107.123 44.656C106.787 44.848 106.517 45.112 106.313 45.448C106.109 45.784 106.007 46.15 106.007 46.546V47.23ZM115.277 52.126C114.593 52.126 114.011 51.934 113.531 51.55C113.063 51.154 112.829 50.554 112.829 49.75C112.829 49.09 113.003 48.586 113.351 48.238C113.711 47.878 114.203 47.632 114.827 47.5C115.463 47.356 116.195 47.284 117.023 47.284H117.941V46.852C117.941 46.468 117.869 46.09 117.725 45.718C117.593 45.334 117.371 45.022 117.059 44.782C116.747 44.53 116.333 44.404 115.817 44.404C115.421 44.404 115.097 44.452 114.845 44.548C114.593 44.632 114.395 44.716 114.251 44.8C114.107 44.884 113.987 44.926 113.891 44.926C113.735 44.926 113.615 44.854 113.531 44.71C113.459 44.566 113.423 44.428 113.423 44.296C113.423 44.14 113.543 43.996 113.783 43.864C114.035 43.72 114.347 43.606 114.719 43.522C115.091 43.426 115.469 43.378 115.853 43.378C116.657 43.378 117.293 43.546 117.761 43.882C118.241 44.206 118.583 44.632 118.787 45.16C119.003 45.688 119.111 46.252 119.111 46.852V51.55C119.111 51.67 119.057 51.778 118.949 51.874C118.841 51.958 118.703 52 118.535 52C118.379 52 118.247 51.958 118.139 51.874C118.043 51.778 117.995 51.67 117.995 51.55V50.74C117.683 51.1 117.299 51.424 116.843 51.712C116.399 51.988 115.877 52.126 115.277 52.126ZM115.565 51.154C115.949 51.154 116.321 51.052 116.681 50.848C117.053 50.644 117.353 50.392 117.581 50.092C117.821 49.792 117.941 49.51 117.941 49.246V48.094H117.185C116.633 48.094 116.111 48.13 115.619 48.202C115.139 48.262 114.749 48.406 114.449 48.634C114.149 48.85 113.999 49.186 113.999 49.642C113.999 50.158 114.149 50.542 114.449 50.794C114.749 51.034 115.121 51.154 115.565 51.154ZM121.856 52C121.688 52 121.55 51.952 121.442 51.856C121.334 51.76 121.28 51.658 121.28 51.55V43.918C121.28 43.798 121.334 43.696 121.442 43.612C121.55 43.528 121.688 43.486 121.856 43.486C122.012 43.486 122.144 43.528 122.252 43.612C122.36 43.696 122.414 43.798 122.414 43.918V44.746C122.606 44.398 122.906 44.086 123.314 43.81C123.722 43.522 124.226 43.378 124.826 43.378C125.402 43.378 125.93 43.534 126.41 43.846C126.902 44.146 127.292 44.554 127.58 45.07C127.868 45.574 128.012 46.132 128.012 46.744V51.55C128.012 51.694 127.952 51.808 127.832 51.892C127.712 51.964 127.574 52 127.418 52C127.286 52 127.154 51.964 127.022 51.892C126.902 51.808 126.842 51.694 126.842 51.55V46.744C126.842 46.36 126.74 45.994 126.536 45.646C126.344 45.298 126.074 45.016 125.726 44.8C125.39 44.572 125.018 44.458 124.61 44.458C124.25 44.458 123.902 44.548 123.566 44.728C123.242 44.908 122.972 45.172 122.756 45.52C122.552 45.856 122.45 46.264 122.45 46.744V51.55C122.45 51.658 122.39 51.76 122.27 51.856C122.162 51.952 122.024 52 121.856 52ZM132.497 52.126C131.933 52.126 131.435 52.06 131.003 51.928C130.583 51.784 130.253 51.61 130.013 51.406C129.785 51.202 129.671 51.01 129.671 50.83C129.671 50.722 129.707 50.608 129.779 50.488C129.863 50.368 129.965 50.308 130.085 50.308C130.217 50.308 130.361 50.38 130.517 50.524C130.673 50.656 130.901 50.794 131.201 50.938C131.501 51.07 131.921 51.136 132.461 51.136C133.145 51.136 133.625 51.01 133.901 50.758C134.177 50.494 134.315 50.194 134.315 49.858C134.315 49.462 134.207 49.156 133.991 48.94C133.775 48.712 133.499 48.538 133.163 48.418C132.827 48.286 132.467 48.172 132.083 48.076C131.711 47.968 131.351 47.836 131.003 47.68C130.667 47.512 130.391 47.284 130.175 46.996C129.971 46.708 129.869 46.318 129.869 45.826C129.869 45.442 129.959 45.064 130.139 44.692C130.331 44.32 130.637 44.008 131.057 43.756C131.477 43.504 132.029 43.378 132.713 43.378C133.109 43.378 133.487 43.42 133.847 43.504C134.219 43.588 134.525 43.702 134.765 43.846C135.005 43.978 135.125 44.116 135.125 44.26C135.125 44.356 135.077 44.482 134.981 44.638C134.897 44.794 134.783 44.872 134.639 44.872C134.543 44.872 134.411 44.83 134.243 44.746C134.087 44.662 133.883 44.578 133.631 44.494C133.379 44.41 133.079 44.368 132.731 44.368C132.287 44.368 131.933 44.446 131.669 44.602C131.405 44.758 131.213 44.944 131.093 45.16C130.985 45.376 130.931 45.58 130.931 45.772C130.931 46.12 131.039 46.39 131.255 46.582C131.471 46.762 131.747 46.906 132.083 47.014C132.431 47.122 132.791 47.23 133.163 47.338C133.547 47.434 133.907 47.572 134.243 47.752C134.579 47.932 134.855 48.184 135.071 48.508C135.287 48.832 135.395 49.264 135.395 49.804C135.395 50.524 135.143 51.094 134.639 51.514C134.135 51.922 133.421 52.126 132.497 52.126ZM141.315 52C141.147 52 141.009 51.952 140.901 51.856C140.793 51.76 140.739 51.658 140.739 51.55V43.918C140.739 43.798 140.793 43.696 140.901 43.612C141.009 43.528 141.147 43.486 141.315 43.486C141.471 43.486 141.603 43.528 141.711 43.612C141.819 43.696 141.873 43.798 141.873 43.918V44.746C142.065 44.398 142.359 44.086 142.755 43.81C143.163 43.522 143.667 43.378 144.267 43.378C144.855 43.378 145.371 43.546 145.815 43.882C146.271 44.218 146.607 44.65 146.823 45.178C147.147 44.566 147.549 44.116 148.029 43.828C148.521 43.528 149.031 43.378 149.559 43.378C150.075 43.378 150.561 43.51 151.017 43.774C151.485 44.038 151.863 44.422 152.151 44.926C152.439 45.43 152.583 46.036 152.583 46.744V51.55C152.583 51.658 152.523 51.76 152.403 51.856C152.295 51.952 152.157 52 151.989 52C151.845 52 151.713 51.952 151.593 51.856C151.473 51.76 151.413 51.658 151.413 51.55V46.744C151.413 46.24 151.311 45.82 151.107 45.484C150.903 45.136 150.645 44.878 150.333 44.71C150.021 44.542 149.697 44.458 149.361 44.458C149.013 44.458 148.677 44.548 148.353 44.728C148.029 44.908 147.765 45.166 147.561 45.502C147.357 45.826 147.255 46.216 147.255 46.672V51.568C147.255 51.712 147.189 51.82 147.057 51.892C146.937 51.964 146.805 52 146.661 52C146.529 52 146.397 51.964 146.265 51.892C146.145 51.82 146.085 51.712 146.085 51.568V46.69C146.085 46.042 145.881 45.508 145.473 45.088C145.065 44.668 144.585 44.458 144.033 44.458C143.685 44.458 143.349 44.548 143.025 44.728C142.701 44.908 142.431 45.172 142.215 45.52C142.011 45.856 141.909 46.264 141.909 46.744V51.55C141.909 51.658 141.849 51.76 141.729 51.856C141.621 51.952 141.483 52 141.315 52ZM154.337 56.176C154.181 56.176 154.049 56.134 153.941 56.05C153.845 55.978 153.797 55.846 153.797 55.654C153.797 55.51 153.821 55.384 153.869 55.276C153.929 55.168 154.025 55.114 154.157 55.114C154.541 55.114 154.901 54.952 155.237 54.628C155.573 54.316 155.873 53.896 156.137 53.368C156.413 52.84 156.623 52.264 156.767 51.64L153.833 44.098C153.797 44.038 153.779 43.984 153.779 43.936C153.779 43.78 153.857 43.648 154.013 43.54C154.181 43.432 154.343 43.378 154.499 43.378C154.715 43.378 154.853 43.462 154.913 43.63L157.379 50.254L159.701 43.63C159.773 43.462 159.905 43.378 160.097 43.378C160.241 43.378 160.397 43.432 160.565 43.54C160.733 43.636 160.817 43.774 160.817 43.954C160.817 44.014 160.805 44.062 160.781 44.098L157.991 51.676C157.811 52.144 157.619 52.642 157.415 53.17C157.211 53.698 156.971 54.19 156.695 54.646C156.419 55.102 156.089 55.468 155.705 55.744C155.333 56.032 154.877 56.176 154.337 56.176ZM168.127 52.126C167.563 52.126 167.065 52.06 166.633 51.928C166.213 51.784 165.883 51.61 165.643 51.406C165.415 51.202 165.301 51.01 165.301 50.83C165.301 50.722 165.337 50.608 165.409 50.488C165.493 50.368 165.595 50.308 165.715 50.308C165.847 50.308 165.991 50.38 166.147 50.524C166.303 50.656 166.531 50.794 166.831 50.938C167.131 51.07 167.551 51.136 168.091 51.136C168.775 51.136 169.255 51.01 169.531 50.758C169.807 50.494 169.945 50.194 169.945 49.858C169.945 49.462 169.837 49.156 169.621 48.94C169.405 48.712 169.129 48.538 168.793 48.418C168.457 48.286 168.097 48.172 167.713 48.076C167.341 47.968 166.981 47.836 166.633 47.68C166.297 47.512 166.021 47.284 165.805 46.996C165.601 46.708 165.499 46.318 165.499 45.826C165.499 45.442 165.589 45.064 165.769 44.692C165.961 44.32 166.267 44.008 166.687 43.756C167.107 43.504 167.659 43.378 168.343 43.378C168.739 43.378 169.117 43.42 169.477 43.504C169.849 43.588 170.155 43.702 170.395 43.846C170.635 43.978 170.755 44.116 170.755 44.26C170.755 44.356 170.707 44.482 170.611 44.638C170.527 44.794 170.413 44.872 170.269 44.872C170.173 44.872 170.041 44.83 169.873 44.746C169.717 44.662 169.513 44.578 169.261 44.494C169.009 44.41 168.709 44.368 168.361 44.368C167.917 44.368 167.563 44.446 167.299 44.602C167.035 44.758 166.843 44.944 166.723 45.16C166.615 45.376 166.561 45.58 166.561 45.772C166.561 46.12 166.669 46.39 166.885 46.582C167.101 46.762 167.377 46.906 167.713 47.014C168.061 47.122 168.421 47.23 168.793 47.338C169.177 47.434 169.537 47.572 169.873 47.752C170.209 47.932 170.485 48.184 170.701 48.508C170.917 48.832 171.025 49.264 171.025 49.804C171.025 50.524 170.773 51.094 170.269 51.514C169.765 51.922 169.051 52.126 168.127 52.126ZM173.36 52C173.192 52 173.054 51.952 172.946 51.856C172.838 51.76 172.784 51.658 172.784 51.55V38.698C172.784 38.578 172.838 38.476 172.946 38.392C173.054 38.308 173.192 38.266 173.36 38.266C173.528 38.266 173.666 38.308 173.774 38.392C173.894 38.476 173.954 38.578 173.954 38.698V44.746C174.146 44.398 174.44 44.086 174.836 43.81C175.232 43.522 175.73 43.378 176.33 43.378C176.906 43.378 177.434 43.534 177.914 43.846C178.406 44.146 178.796 44.554 179.084 45.07C179.372 45.574 179.516 46.132 179.516 46.744V51.55C179.516 51.694 179.456 51.808 179.336 51.892C179.216 51.964 179.078 52 178.922 52C178.79 52 178.658 51.964 178.526 51.892C178.406 51.808 178.346 51.694 178.346 51.55V46.744C178.346 46.36 178.244 45.994 178.04 45.646C177.836 45.298 177.566 45.016 177.23 44.8C176.894 44.572 176.522 44.458 176.114 44.458C175.754 44.458 175.406 44.548 175.07 44.728C174.746 44.908 174.476 45.172 174.26 45.52C174.056 45.856 173.954 46.264 173.954 46.744V51.55C173.954 51.658 173.894 51.76 173.774 51.856C173.666 51.952 173.528 52 173.36 52ZM184.775 52.126C184.163 52.126 183.599 51.97 183.083 51.658C182.567 51.334 182.147 50.914 181.823 50.398C181.511 49.87 181.355 49.306 181.355 48.706V46.744C181.355 46.144 181.511 45.592 181.823 45.088C182.135 44.572 182.549 44.158 183.065 43.846C183.581 43.534 184.151 43.378 184.775 43.378C185.387 43.378 185.951 43.534 186.467 43.846C186.983 44.146 187.397 44.554 187.709 45.07C188.033 45.574 188.195 46.132 188.195 46.744V48.706C188.195 49.306 188.033 49.87 187.709 50.398C187.397 50.914 186.983 51.334 186.467 51.658C185.951 51.97 185.387 52.126 184.775 52.126ZM184.775 51.046C185.183 51.046 185.555 50.938 185.891 50.722C186.239 50.494 186.515 50.206 186.719 49.858C186.923 49.498 187.025 49.114 187.025 48.706V46.744C187.025 46.36 186.923 45.994 186.719 45.646C186.527 45.298 186.257 45.016 185.909 44.8C185.573 44.572 185.195 44.458 184.775 44.458C184.355 44.458 183.971 44.572 183.623 44.8C183.287 45.016 183.017 45.298 182.812 45.646C182.621 45.994 182.525 46.36 182.525 46.744V48.706C182.525 49.114 182.627 49.498 182.831 49.858C183.035 50.206 183.305 50.494 183.641 50.722C183.977 50.938 184.355 51.046 184.775 51.046ZM190.71 56.176C190.542 56.176 190.404 56.128 190.296 56.032C190.188 55.936 190.134 55.828 190.134 55.708V43.918C190.134 43.798 190.188 43.696 190.296 43.612C190.404 43.528 190.542 43.486 190.71 43.486C190.866 43.486 190.998 43.528 191.106 43.612C191.214 43.696 191.268 43.798 191.268 43.918V44.746C191.46 44.398 191.76 44.086 192.168 43.81C192.588 43.522 193.092 43.378 193.68 43.378C194.268 43.378 194.808 43.534 195.3 43.846C195.792 44.146 196.182 44.554 196.47 45.07C196.77 45.574 196.92 46.132 196.92 46.744V48.706C196.92 49.306 196.77 49.87 196.47 50.398C196.182 50.914 195.792 51.334 195.3 51.658C194.82 51.97 194.298 52.126 193.734 52.126C193.182 52.126 192.684 51.988 192.24 51.712C191.808 51.436 191.496 51.112 191.304 50.74V55.708C191.304 55.828 191.244 55.936 191.124 56.032C191.016 56.128 190.878 56.176 190.71 56.176ZM193.518 51.046C193.914 51.046 194.28 50.938 194.616 50.722C194.952 50.494 195.222 50.2 195.426 49.84C195.642 49.48 195.75 49.102 195.75 48.706V46.744C195.75 46.36 195.648 45.994 195.444 45.646C195.24 45.298 194.964 45.016 194.616 44.8C194.28 44.572 193.902 44.458 193.482 44.458C193.122 44.458 192.774 44.548 192.438 44.728C192.114 44.908 191.844 45.172 191.628 45.52C191.412 45.856 191.304 46.264 191.304 46.744V49.264C191.304 49.444 191.4 49.678 191.592 49.966C191.784 50.242 192.042 50.494 192.366 50.722C192.702 50.938 193.086 51.046 193.518 51.046Z" fill="black"/>
</svg>
